<svg width="44" height="44" viewBox="0 0 44 44" fill="none" xmlns="http://www.w3.org/2000/svg">
<circle cx="22" cy="22" r="22" fill="#533B92"/>
<path d="M15.4289 16.5772C15.2456 16.5772 15.0526 16.5 14.9175 16.3649C14.6377 16.0851 14.6377 15.6219 14.9175 15.3421L18.4202 11.8395C18.7 11.5597 19.1632 11.5597 19.443 11.8395C19.7228 12.1193 19.7228 12.5825 19.443 12.8623L15.9403 16.3649C15.7956 16.5 15.6123 16.5772 15.4289 16.5772Z" fill="white"/>
<path d="M28.571 16.5772C28.3877 16.5772 28.2044 16.5097 28.0596 16.3649L24.557 12.8623C24.2772 12.5825 24.2772 12.1193 24.557 11.8395C24.8368 11.5597 25.3 11.5597 25.5798 11.8395L29.0824 15.3421C29.3623 15.6219 29.3623 16.0851 29.0824 16.3649C28.9474 16.5 28.7544 16.5772 28.571 16.5772Z" fill="white"/>
<path d="M29.9219 20.6491C29.8544 20.6491 29.7868 20.6491 29.7193 20.6491H29.4974H14.2807C13.6053 20.6588 12.8333 20.6588 12.2737 20.0991C11.8298 19.6649 11.6272 18.9895 11.6272 17.9956C11.6272 15.3421 13.5667 15.3421 14.493 15.3421H29.507C30.4333 15.3421 32.3728 15.3421 32.3728 17.9956C32.3728 18.9991 32.1702 19.6649 31.7263 20.0991C31.2246 20.6009 30.5491 20.6491 29.9219 20.6491ZM14.493 19.2018H29.729C30.1632 19.2114 30.5684 19.2114 30.7035 19.0763C30.7711 19.0088 30.9158 18.7772 30.9158 17.9956C30.9158 16.9053 30.6456 16.7895 29.4974 16.7895H14.493C13.3447 16.7895 13.0746 16.9053 13.0746 17.9956C13.0746 18.7772 13.229 19.0088 13.2868 19.0763C13.4219 19.2018 13.8368 19.2018 14.2614 19.2018H14.493Z" fill="white"/>
<path d="M19.8386 28.079C19.443 28.079 19.1149 27.7509 19.1149 27.3553V23.9298C19.1149 23.5342 19.443 23.2062 19.8386 23.2062C20.2342 23.2062 20.5623 23.5342 20.5623 23.9298V27.3553C20.5623 27.7605 20.2342 28.079 19.8386 28.079Z" fill="white"/>
<path d="M24.2772 28.079C23.8816 28.079 23.5535 27.7509 23.5535 27.3553V23.9298C23.5535 23.5342 23.8816 23.2062 24.2772 23.2062C24.6728 23.2062 25.0009 23.5342 25.0009 23.9298V27.3553C25.0009 27.7605 24.6728 28.079 24.2772 28.079Z" fill="white"/>
<path d="M24.7886 32.3728H18.9702C15.5158 32.3728 14.7439 30.3176 14.4447 28.5325L13.0842 20.186C13.0167 19.7904 13.2868 19.4237 13.6825 19.3561C14.0781 19.2886 14.4447 19.5588 14.5123 19.9544L15.8728 28.2912C16.1526 29.9991 16.7316 30.9254 18.9702 30.9254H24.7886C27.2684 30.9254 27.5482 30.057 27.8667 28.3781L29.4877 19.9351C29.5649 19.5395 29.9412 19.279 30.3368 19.3658C30.7325 19.443 30.9833 19.8193 30.9061 20.2149L29.2851 28.6579C28.9088 30.6167 28.2816 32.3728 24.7886 32.3728Z" fill="white"/>
</svg>
