<svg width="28" height="28" viewBox="0 0 28 28" fill="none" xmlns="http://www.w3.org/2000/svg">
<path d="M6.05494 7.44333C5.83328 7.44333 5.59994 7.35 5.43661 7.18667C5.09828 6.84833 5.09828 6.28833 5.43661 5.95L9.67161 1.715C10.0099 1.37667 10.5699 1.37667 10.9083 1.715C11.2466 2.05333 11.2466 2.61333 10.9083 2.95167L6.67328 7.18667C6.49828 7.35 6.27661 7.44333 6.05494 7.44333Z" fill="#424242"/>
<path d="M21.945 7.44333C21.7233 7.44333 21.5016 7.36167 21.3266 7.18667L17.0916 2.95167C16.7533 2.61333 16.7533 2.05333 17.0916 1.715C17.43 1.37667 17.99 1.37667 18.3283 1.715L22.5633 5.95C22.9016 6.28833 22.9016 6.84833 22.5633 7.18667C22.4 7.35 22.1666 7.44333 21.945 7.44333Z" fill="#424242"/>
<path d="M23.5784 12.3667C23.4967 12.3667 23.415 12.3667 23.3334 12.3667H23.065H4.66671C3.85004 12.3783 2.91671 12.3783 2.24004 11.7017C1.70337 11.1767 1.45837 10.36 1.45837 9.15833C1.45837 5.95 3.80337 5.95 4.92337 5.95H23.0767C24.1967 5.95 26.5417 5.95 26.5417 9.15833C26.5417 10.3717 26.2967 11.1767 25.76 11.7017C25.1534 12.3083 24.3367 12.3667 23.5784 12.3667ZM4.92337 10.6167H23.345C23.87 10.6283 24.36 10.6283 24.5234 10.465C24.605 10.3833 24.78 10.1033 24.78 9.15833C24.78 7.84 24.4534 7.7 23.065 7.7H4.92337C3.53504 7.7 3.20837 7.84 3.20837 9.15833C3.20837 10.1033 3.39504 10.3833 3.46504 10.465C3.62837 10.6167 4.13004 10.6167 4.64337 10.6167H4.92337Z" fill="#424242"/>
<path d="M11.3867 21.35C10.9084 21.35 10.5117 20.9533 10.5117 20.475V16.3333C10.5117 15.855 10.9084 15.4583 11.3867 15.4583C11.8651 15.4583 12.2617 15.855 12.2617 16.3333V20.475C12.2617 20.965 11.8651 21.35 11.3867 21.35Z" fill="#424242"/>
<path d="M16.7533 21.35C16.275 21.35 15.8783 20.9533 15.8783 20.475V16.3333C15.8783 15.855 16.275 15.4583 16.7533 15.4583C17.2316 15.4583 17.6283 15.855 17.6283 16.3333V20.475C17.6283 20.965 17.2316 21.35 16.7533 21.35Z" fill="#424242"/>
<path d="M17.3717 26.5417H10.3367C6.16004 26.5417 5.22671 24.0567 4.86504 21.8983L3.22004 11.8067C3.13837 11.3283 3.46504 10.885 3.94337 10.8033C4.42171 10.7217 4.86504 11.0483 4.94671 11.5267L6.59171 21.6067C6.93004 23.6717 7.63004 24.7917 10.3367 24.7917H17.3717C20.37 24.7917 20.7084 23.7417 21.0934 21.7117L23.0534 11.5033C23.1467 11.025 23.6017 10.71 24.08 10.815C24.5584 10.9083 24.8617 11.3633 24.7684 11.8417L22.8084 22.05C22.3534 24.4183 21.595 26.5417 17.3717 26.5417Z" fill="#424242"/>
</svg>
