<svg width="28" height="28" viewBox="0 0 28 28" fill="none" xmlns="http://www.w3.org/2000/svg">
<path d="M14 25.2583C13.6384 25.2583 13.2884 25.2117 12.9967 25.1067C8.54004 23.5783 1.45837 18.1533 1.45837 10.1383C1.45837 6.055 4.76004 2.74167 8.82004 2.74167C10.7917 2.74167 12.635 3.51167 14 4.88834C15.365 3.51167 17.2084 2.74167 19.18 2.74167C23.24 2.74167 26.5417 6.06667 26.5417 10.1383C26.5417 18.165 19.46 23.5783 15.0034 25.1067C14.7117 25.2117 14.3617 25.2583 14 25.2583ZM8.82004 4.49167C5.72837 4.49167 3.20837 7.02334 3.20837 10.1383C3.20837 18.1067 10.8734 22.54 13.5684 23.4617C13.7784 23.5317 14.2334 23.5317 14.4434 23.4617C17.1267 22.54 24.8034 18.1183 24.8034 10.1383C24.8034 7.02334 22.2834 4.49167 19.1917 4.49167C17.4184 4.49167 15.7734 5.32 14.7117 6.755C14.385 7.19834 13.6384 7.19834 13.3117 6.755C12.2267 5.30834 10.5934 4.49167 8.82004 4.49167Z" fill="#424242"/>
</svg>
