<svg width="23" height="23" viewBox="0 0 23 23" fill="none" xmlns="http://www.w3.org/2000/svg">
<path d="M6.95822 0.560791C3.43039 0.560791 0.56073 3.43311 0.56073 6.96185V16.1037C0.56073 19.6315 3.43305 22.5012 6.96179 22.5012H16.1036C19.6314 22.5012 22.5011 19.6288 22.5011 16.1001V6.95828C22.5011 3.43045 19.6288 0.560791 16.1 0.560791H6.95822ZM17.9302 4.21752C18.4348 4.21752 18.8444 4.62707 18.8444 5.1317C18.8444 5.63633 18.4348 6.04588 17.9302 6.04588C17.4256 6.04588 17.016 5.63633 17.016 5.1317C17.016 4.62707 17.4256 4.21752 17.9302 4.21752ZM11.5309 6.04588C14.5559 6.04588 17.016 8.50594 17.016 11.531C17.016 14.556 14.5559 17.0161 11.5309 17.0161C8.50588 17.0161 6.04582 14.556 6.04582 11.531C6.04582 8.50594 8.50588 6.04588 11.5309 6.04588ZM11.5309 7.87424C10.5611 7.87424 9.63098 8.25951 8.94521 8.94528C8.25944 9.63104 7.87418 10.5611 7.87418 11.531C7.87418 12.5008 8.25944 13.4309 8.94521 14.1167C9.63098 14.8024 10.5611 15.1877 11.5309 15.1877C12.5007 15.1877 13.4308 14.8024 14.1166 14.1167C14.8024 13.4309 15.1876 12.5008 15.1876 11.531C15.1876 10.5611 14.8024 9.63104 14.1166 8.94528C13.4308 8.25951 12.5007 7.87424 11.5309 7.87424Z" fill="white"/>
</svg>
