<svg width="20" height="20" viewBox="0 0 20 20" fill="none" xmlns="http://www.w3.org/2000/svg">
<path d="M14.6834 8.95829C14.325 8.95829 14.0417 8.66663 14.0417 8.31663C14.0417 8.00829 13.7334 7.36663 13.2167 6.80829C12.7084 6.26663 12.15 5.94996 11.6834 5.94996C11.325 5.94996 11.0417 5.65829 11.0417 5.30829C11.0417 4.95829 11.3334 4.66663 11.6834 4.66663C12.5167 4.66663 13.3917 5.11663 14.1584 5.92496C14.875 6.68329 15.3334 7.62496 15.3334 8.30829C15.3334 8.66663 15.0417 8.95829 14.6834 8.95829Z" fill="white"/>
<path d="M17.6917 8.95829C17.3333 8.95829 17.05 8.66663 17.05 8.31663C17.05 5.35829 14.6417 2.95829 11.6917 2.95829C11.3333 2.95829 11.05 2.66663 11.05 2.31663C11.05 1.96663 11.3333 1.66663 11.6833 1.66663C15.35 1.66663 18.3333 4.64996 18.3333 8.31663C18.3333 8.66663 18.0417 8.95829 17.6917 8.95829Z" fill="white"/>
<path d="M9.20835 12.4583L7.66669 14C7.34169 14.325 6.82502 14.325 6.49169 14.0083C6.40002 13.9166 6.30835 13.8333 6.21669 13.7416C5.35835 12.875 4.58335 11.9666 3.89169 11.0166C3.20835 10.0666 2.65835 9.11663 2.25835 8.17496C1.86669 7.22496 1.66669 6.31663 1.66669 5.44996C1.66669 4.88329 1.76669 4.34163 1.96669 3.84163C2.16669 3.33329 2.48335 2.86663 2.92502 2.44996C3.45835 1.92496 4.04169 1.66663 4.65835 1.66663C4.89169 1.66663 5.12502 1.71663 5.33335 1.81663C5.55002 1.91663 5.74169 2.06663 5.89169 2.28329L7.82502 5.00829C7.97502 5.21663 8.08335 5.40829 8.15835 5.59163C8.23335 5.76663 8.27502 5.94163 8.27502 6.09996C8.27502 6.29996 8.21669 6.49996 8.10002 6.69163C7.99169 6.88329 7.83335 7.08329 7.63335 7.28329L7.00002 7.94163C6.90835 8.03329 6.86669 8.14163 6.86669 8.27496C6.86669 8.34163 6.87502 8.39996 6.89169 8.46663C6.91669 8.53329 6.94169 8.58329 6.95835 8.63329C7.10835 8.90829 7.36669 9.26663 7.73335 9.69996C8.10835 10.1333 8.50835 10.575 8.94169 11.0166C9.02502 11.1 9.11669 11.1833 9.20002 11.2666C9.53335 11.5916 9.54169 12.125 9.20835 12.4583Z" fill="white"/>
<path d="M18.3083 15.275C18.3083 15.5083 18.2667 15.75 18.1833 15.9833C18.1583 16.05 18.1333 16.1166 18.1 16.1833C17.9583 16.4833 17.775 16.7666 17.5333 17.0333C17.125 17.4833 16.675 17.8083 16.1667 18.0166C16.1583 18.0166 16.15 18.025 16.1417 18.025C15.65 18.225 15.1167 18.3333 14.5417 18.3333C13.6917 18.3333 12.7833 18.1333 11.825 17.725C10.8667 17.3166 9.90833 16.7666 8.95833 16.075C8.63333 15.8333 8.30833 15.5916 8 15.3333L10.725 12.6083C10.9583 12.7833 11.1667 12.9166 11.3417 13.0083C11.3833 13.025 11.4333 13.05 11.4917 13.075C11.5583 13.1 11.625 13.1083 11.7 13.1083C11.8417 13.1083 11.95 13.0583 12.0417 12.9666L12.675 12.3416C12.8833 12.1333 13.0833 11.975 13.275 11.875C13.4667 11.7583 13.6583 11.7 13.8667 11.7C14.025 11.7 14.1917 11.7333 14.375 11.8083C14.5583 11.8833 14.75 11.9916 14.9583 12.1333L17.7167 14.0916C17.9333 14.2416 18.0833 14.4166 18.175 14.625C18.2583 14.8333 18.3083 15.0416 18.3083 15.275Z" fill="white"/>
</svg>
