<svg width="24" height="20" viewBox="0 0 24 20" fill="none" xmlns="http://www.w3.org/2000/svg">
<path d="M23.8859 2.6283C23.0109 3.01687 22.071 3.27836 21.0845 3.3963C22.092 2.79287 22.8646 1.83745 23.2285 0.698247C22.2868 1.25688 21.2427 1.66282 20.1309 1.88225C19.2413 0.934132 17.9741 0.341675 16.5716 0.341675C13.8781 0.341675 11.6948 2.5259 11.6948 5.21847C11.6948 5.60065 11.7387 5.97367 11.821 6.32933C7.76793 6.12636 4.17478 4.18442 1.76838 1.2331C1.34964 1.95356 1.10918 2.79105 1.10918 3.68613C1.10918 5.37756 1.96953 6.87059 3.27787 7.74465C2.47878 7.71905 1.72633 7.49962 1.06895 7.13482C1.06895 7.15585 1.06895 7.17505 1.06895 7.19607C1.06895 9.5595 2.74941 11.5307 4.98118 11.9778C4.5725 12.0893 4.14095 12.1488 3.6957 12.1488C3.3821 12.1488 3.07581 12.1177 2.77867 12.0619C3.39947 13.9993 5.20061 15.41 7.33455 15.4493C5.66598 16.7577 3.56313 17.5376 1.27741 17.5376C0.884268 17.5376 0.495697 17.5147 0.113525 17.469C2.27215 18.8523 4.8349 19.6596 7.58964 19.6596C16.5606 19.6596 21.4648 12.2283 21.4648 5.7835C21.4648 5.5723 21.4603 5.36202 21.4511 5.15265C22.4047 4.46419 23.2322 3.60567 23.8859 2.6283Z" fill="white"/>
</svg>
