<svg width="28" height="28" viewBox="0 0 28 28" fill="none" xmlns="http://www.w3.org/2000/svg">
<path d="M14 14.875C10.3016 14.875 7.29163 11.865 7.29163 8.16667C7.29163 4.46834 10.3016 1.45834 14 1.45834C17.6983 1.45834 20.7083 4.46834 20.7083 8.16667C20.7083 11.865 17.6983 14.875 14 14.875ZM14 3.20834C11.27 3.20834 9.04163 5.43667 9.04163 8.16667C9.04163 10.8967 11.27 13.125 14 13.125C16.73 13.125 18.9583 10.8967 18.9583 8.16667C18.9583 5.43667 16.73 3.20834 14 3.20834Z" fill="#424242"/>
<path d="M24.0218 26.5417C23.5435 26.5417 23.1468 26.145 23.1468 25.6667C23.1468 21.6417 19.0402 18.375 14.0002 18.375C8.96018 18.375 4.85352 21.6417 4.85352 25.6667C4.85352 26.145 4.45685 26.5417 3.97852 26.5417C3.50018 26.5417 3.10352 26.145 3.10352 25.6667C3.10352 20.685 7.99184 16.625 14.0002 16.625C20.0085 16.625 24.8968 20.685 24.8968 25.6667C24.8968 26.145 24.5002 26.5417 24.0218 26.5417Z" fill="#424242"/>
</svg>
